<svg version="1.1" id="Capa_1" xmlns="http://www.w3.org/2000/svg" x="0" y="0" viewBox="0 0 16 16" xml:space="preserve"><style>.st2{fill:#cdeaef}</style><path d="M14.2 3.6c0-.5-.4-.8-.7-.9 0-1.2-.6-2.1-2-1.9-1.7.2-5 1.7-7.5 6.3-3.2 6-.3 9.3 3.1 8.8 4.8-.5 7.7-7 7.1-12.3zM7.3 14.8c-2.5.3-2.3-3.6-.7-7.2s3.7-5.3 4.9-5.5.2 2.5-1.5 4c0 0 .6 1.1 1.7.3.2-.1.3-.3.5-.4-.6 3.9-2.7 8.5-4.9 8.8z" fill="#22396f"/><path d="M13.3 2.9c0-.5-.4-.8-.7-.9 0-1.2-.6-2.1-2-1.9-1.7.2-5 1.7-7.5 6.3-3.2 6-.3 9.3 3.1 8.8 4.8-.6 7.7-7.1 7.1-12.3zM6.4 14c-2.5.4-2.4-3.6-.8-7.2s3.7-5.3 4.9-5.5.2 2.5-1.5 4c0 0 .6 1.1 1.7.3.2-.1.3-.3.5-.4-.5 4-2.6 8.6-4.8 8.8z" fill="#60c8dc"/><path class="st2" d="M11.2 10.7c-.1 0-.2 0-.2.1-1.6 3-4.4 3.6-4.4 3.6-.1 0-.1.1-.1.2s.1.1.2.1 3-.6 4.6-3.7c.1-.1 0-.2-.1-.3zM10 5.7h.3c.5-.2.9-.8 1.2-1.8 0-.1 0-.2-.1-.2s-.2 0-.2.1c-.3 1.1-.7 1.5-1 1.6-.3.1-.5 0-.5 0h-.2c-.1.1 0 .2 0 .2.1-.1.2.1.5.1z"/></svg>